<?xml version="1.0" standalone="no"?>
<!DOCTYPE svg PUBLIC "-//W3C//DTD SVG 20010904//EN"
 "http://www.w3.org/TR/2001/REC-SVG-20010904/DTD/svg10.dtd">
<svg version="1.0" xmlns="http://www.w3.org/2000/svg"
 width="45.000000pt" height="51.000000pt" viewBox="0 0 45.000000 51.000000"
 preserveAspectRatio="xMidYMid meet">
<metadata>
Created by potrace 1.15, written by Peter Selinger 2001-2017
</metadata>
<g transform="translate(0.000000,51.000000) scale(0.100000,-0.100000)"
fill="#000000" stroke="none">
<path d="M49 413 c-14 -38 3 -93 42 -138 23 -26 27 -35 15 -35 -34 0 -5 -46
34 -55 34 -7 41 -25 37 -95 -2 -36 2 -49 21 -68 l24 -22 27 23 c21 18 26 28
20 44 -20 54 7 123 47 123 12 0 44 37 44 51 0 4 -10 4 -22 1 -20 -5 -19 -2 9
27 39 38 59 97 48 138 -8 26 -9 25 -16 -20 -4 -27 -9 -51 -12 -53 -2 -2 -16
13 -30 33 -15 21 -27 31 -27 24 0 -11 -5 -10 -22 4 -13 10 -6 2 15 -19 46 -47
47 -74 2 -103 -18 -11 -36 -19 -39 -15 -11 10 -6 47 9 66 8 11 15 24 15 30 0
18 -30 -32 -44 -71 -16 -47 -38 -49 -47 -4 -4 18 -15 41 -24 50 -16 15 -17 15
-6 -6 6 -12 11 -33 11 -47 l0 -26 -40 26 c-47 31 -50 54 -12 86 15 13 32 30
37 38 6 10 2 10 -12 -3 -11 -9 -22 -14 -26 -11 -3 3 -14 -8 -25 -25 -19 -31
-19 -31 -30 -8 -6 12 -10 37 -9 55 4 39 0 41 -14 5z"/>
</g>
</svg>
